#!OML:ASF Y:\EmotionMaleHayes\Project 1\Capture day 1\Session 1\Male1.ASF
:FULLY-SPECIFIED
:DEGREES
821
root 19.486 17.2283 -2.37003 -11.3575 78.4492 -12.8186
lowerback 10.2556 2.88214 -13.3981
upperback 6.40325 3.14581 -5.58614
thorax 0.74423 1.4947 1.28517
lowerneck -25.2904 3.14524 2.04396
upperneck 24.1101 1.53299 8.05809
head 12.14 2.08872 3.01336
rclavicle -3.26007e-014 -8.26944e-014
rhumerus -58.8999 19.8326 -94.7651
rradius 47.8372
rwrist -8.18773
rhand -9.05455 -33.4339
rfingers 7.12502
rthumb 16.8939 -62.7191
lclavicle -3.26007e-014 -8.26944e-014
lhumerus -9.44048 -24.037 77.0016
lradius 60.6227
lwrist 12.5364
lhand -28.5961 -21.9608
lfingers 7.12502
lthumb -1.96165 8.00988
rfemur -1.54659 -8.1351 11.0858
rtibia 21.0451
rfoot -16.707 -11.4841
rtoes 8.29249
lfemur 4.87498 1.29333 -18.4451
ltibia 16.1934
lfoot -20.6274 14.2096
ltoes 4.21678
822
root 19.5509 17.2261 -2.36123 -11.1009 78.7317 -12.4041
lowerback 10.1851 2.81491 -13.4676
upperback 6.42448 3.06919 -5.56193
thorax 0.811975 1.45083 1.36051
lowerneck -25.3907 3.1867 2.12024
upperneck 24.4129 1.53191 8.10931
head 12.2803 2.11366 3.0373
rclavicle 2.62396e-014 2.22639e-014
rhumerus -59.5554 19.7817 -94.8522
rradius 48.3621
rwrist -8.25705
rhand -8.40734 -33.7921
rfingers 7.12502
rthumb 17.5169 -63.0229
lclavicle 2.62396e-014 2.22639e-014
lhumerus -8.24588 -24.4589 76.8948
lradius 61.0131
lwrist 11.7539
lhand -28.5668 -22.65
lfingers 7.12502
lthumb -1.93329 7.32098
rfemur -2.00034 -8.06172 11.0786
rtibia 21.1854
rfoot -16.7452 -11.6499
rtoes 9.23071
lfemur 5.41412 1.11506 -18.638
ltibia 15.8274
lfoot -20.5428 14.2196
ltoes 3.95618
823
root 19.6154 17.2261 -2.3525 -9.15961 79.0781 -10.3167
lowerback 10.0582 2.74829 -13.823
upperback 6.4558 2.99182 -5.65199
thorax 0.923725 1.40204 1.47096
lowerneck -25.4776 3.19018 2.36583
upperneck 24.6594 1.46496 7.96666
head 12.403 2.09629 2.94433
rclavicle 3.18055e-015 8.26944e-014
rhumerus -60.1563 19.5817 -94.9135
rradius 48.9652
rwrist -8.04765
rhand -8.05792 -33.6486
rfingers 7.12502
rthumb 17.8531 -62.8491
lclavicle 3.18055e-015 8.26944e-014
lhumerus -7.22835 -25.0586 76.8358
lradius 61.5916
lwrist 11.7994
lhand -28.851 -23.3796
lfingers 7.12502
lthumb -2.20778 6.58872
rfemur -2.56934 -8.0994 10.662
rtibia 21.5056
rfoot -16.6858 -11.8849
rtoes 9.07135
lfemur 5.85802 0.969926 -19.2301
ltibia 15.5848
lfoot -20.5634 14.1381
ltoes 4.01807
824
root 19.6832 17.2252 -2.34217 -7.73765 79.3996 -8.70473
lowerback 10.0233 2.69383 -14.051
upperback 6.46936 2.91845 -5.70919
thorax 0.966526 1.36098 1.5423
lowerneck -25.5458 3.17598 2.61386
upperneck 24.9203 1.38877 7.76355
head 12.5285 2.06667 2.82541
rclavicle -1.43125e-014 5.08889e-014
rhumerus -60.808 19.4574 -95.0126
rradius 49.5697
rwrist -8.03811
rhand -7.54908 -33.6054
rfingers 7.12502
rthumb 18.3427 -62.7606
lclavicle -1.43125e-014 5.08889e-014
lhumerus -6.22595 -25.7046 76.7902
lradius 62.052
lwrist 11.5111
lhand -29.2805 -24.0346
lfingers 7.12502
lthumb -2.62264 5.92907
rfemur -2.8965 -8.23432 10.3402
rtibia 21.6598
rfoot -16.5539 -12.0656
rtoes 8.44944
lfemur 6.40358 0.860872 -19.6813
ltibia 15.3517
lfoot -20.5221 14.0792
ltoes 3.55559
825
root 19.7559 17.2221 -2.33154 -7.40437 79.6131 -8.17137
lowerback 9.99188 2.64783 -14.1017
upperback 6.45893 2.85671 -5.65755
thorax 0.976453 1.32695 1.63179
lowerneck -25.5692 3.1773 2.67816
upperneck 25.2247 1.37247 7.69494
head 12.6569 2.06567 2.79958
rclavicle -3.26007e-014 1.59028e-014
rhumerus -61.4934 19.5956 -95.1701
rradius 50.089
rwrist -8.34831
rhand -6.95462 -34.0408
rfingers 7.12502
rthumb 18.9145 -63.1412
lclavicle -3.26007e-014 1.59028e-014
lhumerus -5.17996 -26.3408 76.7562
lradius 62.4619
lwrist 11.3001
lhand -29.6972 -24.7345
lfingers 7.12502
lthumb -3.02507 5.22377
rfemur -3.07599 -8.39303 10.2755
rtibia 21.6522
rfoot -16.4426 -12.2325
rtoes 7.28408
lfemur 7.02422 0.798689 -19.8611
ltibia 15.0672
lfoot -20.3728 14.1952
ltoes 1.48332
826
root 19.828 17.2203 -2.32228 -5.53536 79.8674 -6.16242
lowerback 9.85971 2.58101 -14.4172
upperback 6.42333 2.76765 -5.67409
thorax 1.01824 1.27413 1.79726
lowerneck -25.5896 3.14557 2.52359
upperneck 25.5469 1.31246 7.92647
head 12.7906 2.06866 2.92044
rclavicle 3.18055e-014 -1.90833e-014
rhumerus -62.2152 19.7393 -95.3678
rradius 50.6252
rwrist -8.48591
rhand -7.17836 -33.6034
rfingers 7.12502
rthumb 18.6993 -62.7247
lclavicle 3.18055e-014 -1.90833e-014
lhumerus -4.24061 -26.7992 76.7512
lradius 63.0214
lwrist 11.0844
lhand -29.8645 -25.2612
lfingers 7.12502
lthumb -3.18664 4.69472
rfemur -3.348 -8.575 9.8683
rtibia 21.6432
rfoot -16.469 -12.1925
rtoes 7.74343
lfemur 7.47614 0.743498 -20.3658
ltibia 14.8999
lfoot -20.2354 14.242
ltoes -1.13073
827
root 19.8909 17.2209 -2.30778 -4.99612 80.0421 -5.53828
lowerback 9.72468 2.53141 -14.519
upperback 6.43135 2.7218 -5.63842
thorax 1.10404 1.24231 1.89998
lowerneck -25.7799 3.12891 2.39989
upperneck 25.8726 1.23888 8.19195
head 12.9621 2.0759 3.05378
rclavicle -3.73715e-014 -1.90833e-014
rhumerus -62.7849 19.7152 -95.4734
rradius 51.2216
rwrist -8.27956
rhand -7.74771 -32.4449
rfingers 7.12502
rthumb 18.1516 -61.6179
lclavicle -3.73715e-014 -1.90833e-014
lhumerus -3.22645 -27.2416 76.6612
lradius 63.5908
lwrist 10.7503
lhand -29.9574 -25.6358
lfingers 7.12502
lthumb -3.27631 4.31874
rfemur -3.77974 -8.34705 9.89736
rtibia 21.7178
rfoot -16.6837 -12.3822
rtoes 9.09887
lfemur 7.80593 0.803146 -20.4272
ltibia 14.8496
lfoot -20.0598 14.2352
ltoes -3.62181
